<?xml version="1.0" standalone="no"?>
<!DOCTYPE svg PUBLIC "-//W3C//DTD SVG 20010904//EN"
 "http://www.w3.org/TR/2001/REC-SVG-20010904/DTD/svg10.dtd">
<svg version="1.0" xmlns="http://www.w3.org/2000/svg"
 width="183.000000pt" height="267.000000pt" viewBox="0 0 183.000000 267.000000"
 preserveAspectRatio="xMidYMid meet">

<g transform="translate(0.000000,267.000000) scale(0.100000,-0.100000)"
fill="#000000" stroke="none">
<path d="M732 2262 c-21 -17 -22 -21 -12 -72 15 -74 40 -150 57 -177 14 -21
11 -29 -35 -108 -47 -81 -49 -88 -40 -126 10 -38 8 -43 -36 -109 -31 -47 -46
-79 -44 -98 1 -15 -4 -38 -11 -51 -12 -21 -10 -26 15 -46 32 -25 61 -34 143
-42 71 -7 123 10 172 54 45 40 50 63 15 63 -19 0 -23 -4 -19 -20 12 -46 -83
-94 -174 -88 -42 3 -49 6 -53 28 -7 37 -41 82 -56 76 -19 -7 -19 58 0 74 8 6
29 33 46 60 18 28 40 50 52 52 16 2 21 11 22 46 2 44 -3 49 -35 32 -25 -14
-25 -11 16 69 23 47 51 83 85 112 53 45 62 68 31 76 -20 5 -39 44 -60 118 -6
22 -21 52 -34 67 -21 26 -23 26 -45 10z m89 -141 c16 -46 17 -60 8 -78 -7 -13
-15 -23 -19 -23 -15 0 -49 93 -56 152 l-7 63 28 -29 c15 -16 36 -55 46 -85z"/>
<path d="M1164 2174 c-21 -33 -76 -105 -121 -161 -82 -102 -91 -117 -74 -127
6 -4 179 211 223 278 12 18 17 3 28 -76 10 -71 7 -115 -14 -223 l-6 -30 15 32
c8 18 20 64 26 103 13 76 3 164 -25 230 l-13 33 -39 -59z"/>
<path d="M1116 2008 c-48 -85 -72 -206 -41 -214 10 -3 125 224 125 246 0 5
-13 10 -30 10 -24 0 -34 -8 -54 -42z"/>
<path d="M1314 1783 c35 -35 70 -84 94 -131 35 -72 37 -80 36 -171 -2 -102
-54 -371 -95 -493 -47 -136 -197 -397 -289 -502 -27 -31 -31 -39 -19 -47 10
-7 23 1 48 28 126 142 280 459 357 736 35 125 44 326 20 411 -10 32 -15 60
-13 63 8 7 66 -69 87 -115 33 -69 43 -146 36 -267 -11 -195 -68 -403 -141
-514 -19 -29 -35 -54 -35 -56 0 -2 13 -6 30 -10 23 -5 39 0 75 25 61 42 80 73
77 126 -2 51 12 56 65 24 61 -37 57 -136 -11 -275 -60 -120 -98 -175 -136
-195 l-32 -16 27 -18 c15 -10 28 -16 30 -14 1 2 27 39 57 83 57 85 119 221
145 320 14 53 15 64 2 90 -17 36 -73 66 -136 73 -40 4 -44 7 -38 26 48 163 59
377 25 510 -24 94 -73 190 -113 219 -16 12 -48 41 -72 64 -37 36 -111 83 -130
83 -4 0 19 -25 49 -57z m250 -927 c-6 -39 -13 -52 -38 -67 -16 -10 -32 -17
-33 -15 -8 8 40 117 55 125 23 13 23 11 16 -43z"/>
<path d="M890 1690 c0 -27 27 -37 48 -17 18 19 17 22 -20 31 -24 5 -28 3 -28
-14z"/>
<path d="M867 979 c-54 -28 -93 -95 -108 -182 -15 -91 -7 -295 15 -357 8 -24
14 -45 13 -45 -10 -6 -88 -40 -153 -68 -157 -67 -176 -71 -339 -72 -90 0 -152
-4 -155 -10 -7 -15 253 -18 324 -5 139 27 456 165 456 199 0 5 -6 14 -14 20
-11 9 -19 7 -40 -14 -33 -33 -41 -32 -59 8 -26 54 -40 163 -35 277 7 168 52
238 159 248 42 4 55 2 65 -13 13 -17 14 -17 20 -1 4 11 1 22 -7 27 -25 15
-103 9 -142 -12z"/>
<path d="M1223 346 c-112 -24 -137 -36 -79 -36 52 0 43 -17 -30 -54 -57 -30
-64 -31 -234 -37 -96 -4 -206 -12 -245 -19 -68 -12 -321 -9 -420 5 l-40 6 28
-16 c18 -11 75 -20 172 -27 126 -10 161 -9 272 7 70 10 189 19 263 20 124 1
139 4 186 28 28 14 66 38 84 53 28 24 41 28 106 28 77 1 97 11 91 46 -3 22
-40 21 -154 -4z"/>
</g>
</svg>
